#!OML:ASF E:/inclinewalkrobotboard/Project1/Captureday1/Session1/subject1.ASF
:FULLY-SPECIFIED
:DEGREES
213
root 0 0 0 1.0526325419167564 -3.680110362817892 1.8628673341089264
lowerback 11.924759517120817 0.8570911369633859 -0.058182498103256736
upperback -4.224064208348387 1.0868744307227567 -0.5564221637266398
thorax -11.297742804727923 0.4962358016531956 -0.8001878259203064
lowerneck -5.66569329845615 1.4459358245708527 4.565903323245253
upperneck 18.080039005608697 2.8821917356431856 -8.319712064905655
head 6.5878909213377455 1.0475423900014293 -3.222004063613212
rclavicle -8.948697768293252E-16 -3.439636329905076E-16
rhumerus 20.160751443097155 14.710573751359146 -48.13977213356079
rradius 72.54547300649436
rwrist 26.736854451074873
rhand -34.755383070726104 -57.39242528657681
rfingers 7.125020000000038
rthumb -7.916705249136566 -87.30718228045453
lclavicle 9.044590787083111E-16 -1.750262393240393E-15
lhumerus 20.851726790268113 -12.752442535012316 45.28097868005912
lradius 69.94668274873567
lwrist -22.27561096211003
lhand -44.77450511854647 -69.72265545423308
lfingers 7.125020000000029
lthumb -17.56591108615918 -40.52440885520763
rfemur -24.894432293378763 -2.2122881536162184 17.208388401856713
rtibia 54.04879673231479
rfoot -29.079496499312512 -16.7328908690494
rtoes -17.671875245509533
lfemur -26.676723884419463 2.405987803067938 -18.294731345214533
ltibia 54.166127125534246
lfoot -31.06088765436598 -3.528696850970241
ltoes -19.632153059749395
214
root 0 0 0 1.0534942966399354 -3.678507418303381 1.8630643540699339
lowerback 11.924846022311439 0.8572416483436729 -0.058464654277524675
upperback -4.224558992631787 1.0870109083803587 -0.5567220250392976
thorax -11.29835167325302 0.4963062755876254 -0.8003956041292128
lowerneck -5.66835988113975 1.4462613936932092 4.5655660755376015
upperneck 18.08159913291114 2.8824977360614077 -8.31856353732978
head 6.588845347205366 1.0476684423335527 -3.2215574149605066
rclavicle -9.065973385143628E-16 -3.3493259304233865E-16
rhumerus 20.16103190148325 14.709922402141363 -48.139523232199885
rradius 72.54559455044013
rwrist 26.737505227693298
rhand -34.7564521027235 -57.39409888906934
rfingers 7.125020000000038
rthumb -7.917785944349375 -87.30820429522107
lclavicle 8.958301844971717E-16 -1.7439032764976414E-15
lhumerus 20.851859300898383 -12.752372444035448 45.2818066121653
lradius 69.94663419567041
lwrist -22.275090006030105
lhand -44.77508359134952 -69.72473309891612
lfingers 7.1250200000000286
lthumb -17.566551670361328 -40.526600087387166
rfemur -24.893721421244212 -2.211787662928981 17.20745864818717
rtibia 54.04905197535469
rfoot -29.078874748977714 -16.733929219246697
rtoes -17.67245498685343
lfemur -26.678510951807116 2.4062307326628485 -18.294783034630775
ltibia 54.16357186634129
lfoot -31.06304359457065 -3.5259593045097013
ltoes -19.632523949645666
215
root 0 0 0 1.0530975919514942 -3.6792673372761335 1.8629760931875876
lowerback 11.924765268022002 0.8571740721115005 -0.0583740796258663
upperback -4.224356030351933 1.0869465296960117 -0.5565969511238947
thorax -11.298082142216025 0.49627380859584885 -0.8002897978101746
lowerneck -5.6673461430260215 1.4461728362451602 4.565730916882423
upperneck 18.081058609389387 2.882449067305412 -8.319038565927514
head 6.5885006687738015 1.0476465283486494 -3.2217394332085334
rclavicle -8.969409793635578E-16 -3.440322909040386E-16
rhumerus 20.160292219468012 14.71000444124627 -48.139993766259785
rradius 72.54515201296788
rwrist 26.737013089762605
rhand -34.75628285157851 -57.393653993189574
rfingers 7.125020000000038
rthumb -7.917563015110302 -87.30840470462692
lclavicle 9.02529046823075E-16 -1.7504142621162109E-15
lhumerus 20.851380380862064 -12.751775277683462 45.28164057238029
lradius 69.94616477338853
lwrist -22.275475438126698
lhand -44.77482253250634 -69.72472320020039
lfingers 7.125020000000029
lthumb -17.56621446258005 -40.52649695458577
rfemur -24.8944317272479 -2.212263857575361 17.20827926568299
rtibia 54.048654533597144
rfoot -29.07957484080906 -16.73296634163076
rtoes -17.672098701599797
lfemur -26.676986932992328 2.4058637116304498 -18.294774626989586
ltibia 54.1650310976456
lfoot -31.06161727926265 -3.5283360200424605
ltoes -19.63219010702636
216
root 0 0 0 1.052975144343236 -3.679481325622316 1.8629494738006571
lowerback 11.92476667331611 0.8571523338051409 -0.0583236734048507
upperback -4.224281011819187 1.0869275609583984 -0.5565516733539118
thorax -11.297996511762083 0.49626376483925566 -0.8002639701755743
lowerneck -5.666904136596102 1.4461091322293582 4.565776146773726
upperneck 18.080786526050424 2.8823788400089296 -8.319216944671656
head 6.588337711063622 1.0476181388393564 -3.221809594780414
rclavicle -8.965216166150942E-16 -3.4335668811222275E-16
rhumerus 20.160293280499417 14.710051592131848 -48.139988378787734
rradius 72.54516729059657
rwrist 26.736963167771776
rhand -34.75616748458506 -57.393443406710034
rfingers 7.125020000000038
rthumb -7.917455632501628 -87.3082106563262
lclavicle 9.02390263807575E-16 -1.7498607852372884E-15
lhumerus 20.85139768356025 -12.751898237084205 45.28154799837272
lradius 69.94629079522586
lwrist -22.275522085338203
lhand -44.774769788124665 -69.72425633397492
lfingers 7.125020000000029
lthumb -17.56616545970571 -40.526037457399724
rfemur -24.89440105640395 -2.212287801198673 17.208361783689305
rtibia 54.04870974862085
rfoot -29.079483145712306 -16.73292017730234
rtoes -17.67200587163105
lfemur -26.677020396977582 2.405853863178549 -18.29474660147132
ltibia 54.16599314750201
lfoot -31.061179243790782 -3.5287555357255087
ltoes -19.631828343662615
